<svg xmlns="http://www.w3.org/2000/svg" fill="%23000" viewBox="0 0 24 24">
	<path d="M6 3.72V6H1.44v2.808l3.648.168c1.992.096 3.72.072 3.84-.048s.144-1.848.048-3.84L8.808 1.44H6zm9.024 1.368c-.096 1.992-.072 3.72.048 3.84s1.848.144 3.84.048l3.648-.168V6H18V1.44h-2.808zm-11.232 9.96-2.352.096V18H6v4.56h2.808l.168-3.624c.072-1.968.096-3.696.024-3.84-.096-.12-.768-.192-1.512-.168s-2.424.096-3.696.12m11.232.024c-.072.144-.072 1.896 0 3.864l.168 3.624H18V18h4.56v-2.88h-1.512c-.84 0-2.496-.072-3.696-.144-1.464-.12-2.208-.072-2.328.096"/>
</svg>