<svg xmlns="http://www.w3.org/2000/svg" fill="%23000" viewBox="0 0 24 24"><path d="M10.059 1.008a1 1 0 0 0-.562.558c-.052.145-.361 2.531-.356 2.756 0 .023-.028.037-.056.037-.211 0-1.561.769-2.259 1.28-.033.028-.534-.169-1.303-.502-1.359-.591-1.486-.619-1.842-.455-.103.047-.244.145-.309.22s-.511.811-.984 1.636l-.862 1.5v.333c0 .286.019.361.117.502.066.094.609.53 1.209.975.792.586 1.083.825 1.064.881-.009.042-.042.342-.066.67-.042.548 0 1.65.066 1.87.019.056-.267.291-1.064.886-.6.445-1.144.881-1.205.966-.131.187-.183.591-.108.816.08.22 1.692 3.005 1.833 3.159.066.075.206.173.309.22.356.164.483.136 1.842-.455.75-.323 1.275-.525 1.303-.502.548.394 1.186.787 1.636 1.003.309.155.591.277.623.277.028 0 .056.023.056.052 0 .272.3 2.597.356 2.747.089.239.37.506.614.572.239.07 3.539.07 3.778 0 .206-.056.478-.281.581-.483.047-.094.131-.623.23-1.481.089-.736.159-1.35.159-1.373 0-.019.028-.033.061-.033.028 0 .291-.117.581-.253a8.6 8.6 0 0 0 1.453-.881c.136-.103.272-.178.305-.164.033.009.6.258 1.266.544 1.303.562 1.439.595 1.795.431.103-.047.244-.145.309-.22s.506-.811.98-1.631c.797-1.383.862-1.519.881-1.767a.7.7 0 0 0-.103-.497c-.108-.192-.286-.342-1.223-1.036l-1.097-.811.033-.244c.042-.314.042-1.908 0-2.222l-.033-.239 1.087-.806c.6-.445 1.139-.881 1.205-.97.098-.141.117-.22.117-.502v-.333l-.862-1.5c-.473-.825-.919-1.561-.984-1.636s-.206-.173-.309-.22c-.356-.164-.487-.131-1.795.431-.661.286-1.228.534-1.261.544-.033.014-.234-.108-.45-.262a8.3 8.3 0 0 0-1.519-.877c-.23-.098-.417-.183-.422-.183-.009-.005-.075-.586-.155-1.294s-.178-1.373-.216-1.481c-.089-.239-.37-.506-.614-.572-.286-.08-3.6-.066-3.83.019m2.733 7.711a3.39 3.39 0 0 1 2.583 3.272c0 .53-.108.98-.361 1.509-.183.38-.277.506-.642.872s-.492.459-.872.642c-.53.253-.98.361-1.509.361-1.552 0-2.911-1.083-3.277-2.606-.122-.511-.103-1.275.042-1.734.394-1.242 1.369-2.1 2.705-2.381.272-.056.966-.019 1.331.066"/></svg>